<?xml version="1.0" encoding="UTF-8"?> <svg xmlns="http://www.w3.org/2000/svg" width="569" height="241" viewBox="0 0 569 241" fill="none"> <path d="M105.114 234.094V190.479H3V148.817L93.4068 6.90582H151.944V152.723H181.212V190.479H151.944V234.094H105.114ZM42.3497 152.723H105.114V57.356H102.187L42.3497 152.723Z" fill="#E08E45" fill-opacity="0.3"></path> <path d="M284.825 238C254.473 238 232.034 227.693 217.508 207.079C203.199 186.465 196.044 157.605 196.044 120.5C196.044 83.3947 203.199 54.5351 217.508 33.9211C232.034 13.307 254.473 3 284.825 3C315.178 3 337.508 13.307 351.817 33.9211C366.343 54.5351 373.606 83.3947 373.606 120.5C373.606 157.605 366.343 186.465 351.817 207.079C337.508 227.693 315.178 238 284.825 238ZM284.825 199.593C299.351 199.593 309.432 194.494 315.069 184.295C320.923 174.096 323.85 159.884 323.85 141.656V99.3435C323.85 81.1163 320.923 66.9035 315.069 56.705C309.432 46.5065 299.351 41.4072 284.825 41.4072C270.299 41.4072 260.11 46.5065 254.256 56.705C248.619 66.9035 245.801 81.1163 245.801 99.3435V141.656C245.801 159.884 248.619 174.096 254.256 184.295C260.11 194.494 270.299 199.593 284.825 199.593ZM284.825 139.704C277.237 139.704 271.925 138.185 268.89 135.147C266.072 132.109 264.663 128.42 264.663 124.08V116.92C264.663 112.58 266.072 108.891 268.89 105.853C271.925 102.815 277.237 101.296 284.825 101.296C292.413 101.296 297.617 102.815 300.435 105.853C303.47 108.891 304.988 112.58 304.988 116.92V124.08C304.988 128.42 303.47 132.109 300.435 135.147C297.617 138.185 292.413 139.704 284.825 139.704Z" fill="#E08E45" fill-opacity="0.3"></path> <path d="M489.902 234.094V190.479H387.788V148.817L478.195 6.90582H536.732V152.723H566V190.479H536.732V234.094H489.902ZM427.138 152.723H489.902V57.356H486.975L427.138 152.723Z" fill="#E08E45" fill-opacity="0.3"></path> <path fill-rule="evenodd" clip-rule="evenodd" d="M102.114 237.094V193.479H0V147.943L91.761 3.90582H154.944V149.723H184.212V193.479H154.944V237.094H102.114ZM151.944 190.479H181.212V152.723H151.944V6.90582H93.4068L3 148.817V190.479H105.114V234.094H151.944V190.479ZM215.049 208.798L215.043 208.79C200.255 187.486 193.044 157.939 193.044 120.5C193.044 83.0606 200.255 53.5145 215.043 32.2104L215.049 32.2017L215.056 32.193C230.262 10.6133 253.723 0 284.825 0C315.921 0 339.282 10.6099 354.274 32.1989C369.285 53.5055 376.606 83.0568 376.606 120.5C376.606 157.943 369.285 187.495 354.274 208.801C339.282 230.39 315.921 241 284.825 241C253.723 241 230.262 230.387 215.056 208.807L215.049 208.798ZM312.455 182.823L312.467 182.802C317.955 173.241 320.85 159.623 320.85 141.656V99.3435C320.85 81.3771 317.955 67.7585 312.467 58.1984L312.455 58.1774L312.444 58.1562C307.472 49.1615 298.576 44.4072 284.825 44.4072C271.089 44.4072 262.058 49.1556 256.87 58.1776C251.587 67.7484 248.801 81.3776 248.801 99.3435V141.656C248.801 159.622 251.587 173.252 256.87 182.822C262.058 191.844 271.089 196.593 284.825 196.593C298.576 196.593 307.472 191.839 312.444 182.844L312.455 182.823ZM254.256 56.705C248.619 66.9035 245.801 81.1163 245.801 99.3435V141.656C245.801 159.884 248.619 174.096 254.256 184.295C260.11 194.494 270.299 199.593 284.825 199.593C299.351 199.593 309.432 194.494 315.069 184.295C320.923 174.096 323.85 159.884 323.85 141.656V99.3435C323.85 81.1163 320.923 66.9035 315.069 56.705C309.432 46.5065 299.351 41.4072 284.825 41.4072C270.299 41.4072 260.11 46.5065 254.256 56.705ZM217.508 207.079C203.199 186.465 196.044 157.605 196.044 120.5C196.044 83.3947 203.199 54.5351 217.508 33.9211C232.034 13.307 254.473 3 284.825 3C315.178 3 337.508 13.307 351.817 33.9211C366.343 54.5351 373.606 83.3947 373.606 120.5C373.606 157.605 366.343 186.465 351.817 207.079C337.508 227.693 315.178 238 284.825 238C254.473 238 232.034 227.693 217.508 207.079ZM266.729 137.228L266.691 137.187C263.332 133.566 261.663 129.138 261.663 124.08V116.92C261.663 111.862 263.332 107.434 266.691 103.813L266.729 103.772L266.768 103.733C270.667 99.8304 277.004 98.2964 284.825 98.2964C292.585 98.2964 298.882 99.8053 302.595 103.771C306.174 107.371 307.988 111.812 307.988 116.92V124.08C307.988 129.188 306.174 133.629 302.595 137.23C298.881 141.195 292.585 142.704 284.825 142.704C277.004 142.704 270.667 141.17 266.768 137.267L266.729 137.228ZM486.902 237.094V193.479H384.788V147.943L476.549 3.90582H539.732V149.723H569V193.479H539.732V237.094H486.902ZM536.732 190.479H566V152.723H536.732V6.90582H478.195L387.788 148.817V190.479H489.902V234.094H536.732V190.479ZM105.114 57.356H102.187L42.3497 152.723H105.114V57.356ZM102.114 149.723V63.1171L47.7737 149.723H102.114ZM489.902 152.723H427.138L486.975 57.356H489.902V152.723ZM486.902 63.1171L432.562 149.723H486.902V63.1171ZM284.825 139.704C277.237 139.704 271.925 138.185 268.89 135.147C266.072 132.109 264.663 128.42 264.663 124.08V116.92C264.663 112.58 266.072 108.891 268.89 105.853C271.925 102.815 277.237 101.296 284.825 101.296C292.413 101.296 297.617 102.815 300.435 105.853C303.47 108.891 304.988 112.58 304.988 116.92V124.08C304.988 128.42 303.47 132.109 300.435 135.147C297.617 138.185 292.413 139.704 284.825 139.704Z" fill="#E08E45"></path> </svg> 