<?xml version="1.0" encoding="UTF-8"?> <svg xmlns="http://www.w3.org/2000/svg" width="125" height="40" viewBox="0 0 125 40" fill="none"> <path d="M8.00581 21.4527V3.80067H0V0.675676H20.6565V3.80067H12.6885V21.4527H8.00581Z" fill="white"></path> <path d="M30.033 21.5935C27.8427 21.5935 26.093 21.3682 24.7839 20.9178C23.5 20.4673 22.5685 19.6884 21.9894 18.5811C21.4356 17.455 21.1586 15.8971 21.1586 13.9077C21.1586 11.8806 21.423 10.3041 21.9517 9.17793C22.5055 8.0518 23.4244 7.2729 24.7084 6.84122C25.9923 6.39076 27.7294 6.16554 29.9197 6.16554C31.8331 6.16554 33.3813 6.31569 34.5646 6.61599C35.7478 6.89752 36.6038 7.41366 37.1325 8.16441C37.6864 8.91516 37.9633 9.95683 37.9633 11.2894C37.9633 12.7534 37.3968 13.7669 36.2639 14.33C35.131 14.893 33.6079 15.1745 31.6946 15.1745H25.7658C25.8161 16.113 25.9797 16.8637 26.2567 17.4268C26.5588 17.9711 27.0875 18.3652 27.8427 18.6092C28.6232 18.8532 29.7561 18.9752 31.2414 18.9752H37.3591V21.0304C36.3269 21.1806 35.2317 21.3119 34.0737 21.4245C32.9408 21.5372 31.5939 21.5935 30.033 21.5935ZM25.728 13.0631H31.2414C32.1226 13.0631 32.7645 12.9411 33.1674 12.6971C33.5953 12.4343 33.8093 11.9651 33.8093 11.2894C33.8093 10.3134 33.5072 9.63776 32.903 9.26239C32.324 8.88701 31.3295 8.69932 29.9197 8.69932C28.8623 8.69932 28.019 8.82132 27.3896 9.06531C26.7854 9.30931 26.3574 9.75037 26.1056 10.3885C25.8539 11.0267 25.728 11.9182 25.728 13.0631Z" fill="white"></path> <path d="M49.8611 21.6216C48.2498 21.6216 46.8148 21.4058 45.5561 20.9741C44.2973 20.5236 43.3029 19.7447 42.5728 18.6374C41.8679 17.53 41.5154 15.9722 41.5154 13.964C41.5154 11.8994 41.8427 10.3041 42.4972 9.17793C43.177 8.0518 44.1462 7.2729 45.405 6.84122C46.689 6.39076 48.2121 6.16554 49.9744 6.16554C51.1324 6.16554 52.2779 6.21246 53.4108 6.30631C54.5437 6.38138 55.7018 6.53153 56.885 6.75676V8.75563H51.3716C50.1632 8.75563 49.1688 8.8964 48.3883 9.17793C47.633 9.45946 47.0666 9.9756 46.689 10.7264C46.3365 11.4771 46.1603 12.5563 46.1603 13.964C46.1603 15.3529 46.3491 16.4039 46.7267 17.1171C47.1044 17.8303 47.6708 18.3183 48.4261 18.5811C49.2065 18.8438 50.2009 18.9752 51.4094 18.9752H57.1871V20.9459C56.2557 21.1336 55.1228 21.2932 53.7885 21.4245C52.4793 21.5559 51.1702 21.6216 49.8611 21.6216Z" fill="white"></path> <path d="M60.6325 21.4527V0H65.3151V7.93919C66.0955 7.48874 67.1026 7.07583 68.3362 6.70045C69.5698 6.30631 70.8285 6.10923 72.1125 6.10923C73.5978 6.10923 74.7937 6.34384 75.7 6.81306C76.6315 7.26351 77.2986 7.88288 77.7014 8.67117C78.1294 9.45946 78.3434 10.3604 78.3434 11.3739V21.4527H73.6608V11.7962C73.6608 11.0079 73.3461 10.3885 72.7167 9.93806C72.1125 9.48761 71.3069 9.26239 70.2998 9.26239C69.318 9.26239 68.4369 9.375 67.6564 9.60022C66.876 9.82545 66.0955 10.1258 65.3151 10.5011V21.4527H60.6325Z" fill="white"></path> <path d="M87.2092 21.4527V3.82883L81.9601 4.53266V2.30856L87.7002 0.478603H91.8919V21.4527H87.2092Z" fill="white"></path> <path d="M3.22162 37.9676C2.54415 37.9676 1.98919 37.845 1.55676 37.6C1.12433 37.3477 0.767569 37.027 0.486488 36.6378L1.14595 36.0973C1.44144 36.4649 1.75135 36.7387 2.07568 36.9189C2.40721 37.0991 2.8 37.1892 3.25406 37.1892C3.8018 37.1892 4.21982 37.0631 4.50811 36.8108C4.7964 36.5586 4.94054 36.2054 4.94054 35.7514C4.94054 35.3838 4.83604 35.0991 4.62703 34.8973C4.41802 34.6883 4.05406 34.5405 3.53514 34.4541L2.69189 34.3135C2.32433 34.2486 2.01442 34.1514 1.76216 34.0216C1.51712 33.8919 1.31892 33.7369 1.16757 33.5568C1.01622 33.3694 0.90811 33.1676 0.843245 32.9514C0.77838 32.7279 0.745948 32.4973 0.745948 32.2595C0.745948 31.5676 0.972975 31.045 1.42703 30.6919C1.88108 30.3387 2.4937 30.1622 3.26487 30.1622C3.87027 30.1622 4.37838 30.2631 4.78919 30.4649C5.20721 30.6667 5.54234 30.9514 5.7946 31.3189L5.15676 31.8703C4.94775 31.5964 4.6955 31.373 4.4 31.2C4.10451 31.027 3.72252 30.9405 3.25406 30.9405C2.74234 30.9405 2.34955 31.0486 2.07568 31.2649C1.8018 31.4811 1.66487 31.8054 1.66487 32.2378C1.66487 32.5766 1.76577 32.8541 1.96757 33.0703C2.17658 33.2793 2.54775 33.4306 3.08108 33.5243L3.89189 33.6649C4.25946 33.7297 4.56937 33.827 4.82162 33.9568C5.07388 34.0865 5.27568 34.2414 5.42703 34.4216C5.58559 34.6018 5.6973 34.8036 5.76216 35.027C5.82703 35.2504 5.85946 35.4847 5.85946 35.7297C5.85946 36.4288 5.62883 36.9766 5.16757 37.373C4.71352 37.7694 4.06487 37.9676 3.22162 37.9676Z" fill="white"></path> <path d="M9.50929 37.9676C9.1201 37.9676 8.76695 37.8991 8.44983 37.7622C8.13992 37.6252 7.87326 37.4306 7.64983 37.1784C7.43362 36.9189 7.26785 36.6126 7.15254 36.2595C7.03722 35.8991 6.97956 35.4955 6.97956 35.0486C6.97956 34.609 7.03722 34.209 7.15254 33.8486C7.26785 33.4883 7.43362 33.182 7.64983 32.9297C7.87326 32.6703 8.13992 32.4721 8.44983 32.3351C8.76695 32.1982 9.1201 32.1297 9.50929 32.1297C9.89848 32.1297 10.248 32.1982 10.5579 32.3351C10.8751 32.4721 11.1417 32.6703 11.3579 32.9297C11.5814 33.182 11.7507 33.4883 11.866 33.8486C11.9814 34.209 12.039 34.609 12.039 35.0486C12.039 35.4955 11.9814 35.8991 11.866 36.2595C11.7507 36.6126 11.5814 36.9189 11.3579 37.1784C11.1417 37.4306 10.8751 37.6252 10.5579 37.7622C10.248 37.8991 9.89848 37.9676 9.50929 37.9676ZM9.50929 37.2216C9.99217 37.2216 10.3814 37.0775 10.6769 36.7892C10.9724 36.5009 11.1201 36.0541 11.1201 35.4486V34.6486C11.1201 34.0432 10.9724 33.5964 10.6769 33.3081C10.3814 33.0198 9.99217 32.8757 9.50929 32.8757C9.02641 32.8757 8.63722 33.0198 8.34172 33.3081C8.04623 33.5964 7.89848 34.0432 7.89848 34.6486V35.4486C7.89848 36.0541 8.04623 36.5009 8.34172 36.7892C8.63722 37.0775 9.02641 37.2216 9.50929 37.2216Z" fill="white"></path> <path d="M13.4294 37.1027H15.3105V32.9946H13.3213V32.2595H15.3105V31.1135C15.3105 30.7387 15.4078 30.4324 15.6024 30.1946C15.8042 29.9568 16.1177 29.8378 16.5429 29.8378H18.4132V30.573H16.1753V32.2595H18.4132V32.9946H16.1753V37.1027H18.1645V37.8378H13.4294V37.1027Z" fill="white"></path> <path d="M22.3117 37.8378C21.8864 37.8378 21.5729 37.7189 21.3711 37.4811C21.1765 37.2432 21.0792 36.9369 21.0792 36.5622V32.9946H19.2198V32.2595H20.6035C20.7909 32.2595 20.9207 32.2234 20.9927 32.1514C21.072 32.0721 21.1117 31.9387 21.1117 31.7514V30.2919H21.9441V32.2595H24.4846V32.9946H21.9441V37.1027H24.4846V37.8378H22.3117Z" fill="white"></path> <path d="M25.3885 32.2595H26.1561L26.7939 37.0811H26.8912L27.8426 32.2595H28.7939L29.7453 37.0811H29.8426L30.4804 32.2595H31.2264L30.3723 37.8378H29.248L28.3615 33.1676H28.275L27.3669 37.8378H26.2426L25.3885 32.2595Z" fill="white"></path> <path d="M36.6816 37.8378C36.3428 37.8378 36.1014 37.7514 35.9573 37.5784C35.8131 37.4054 35.723 37.1892 35.687 36.9297H35.6329C35.5104 37.2541 35.3122 37.5099 35.0383 37.6973C34.7717 37.8775 34.4113 37.9676 33.9573 37.9676C33.3735 37.9676 32.9086 37.8162 32.5627 37.5135C32.2167 37.2108 32.0437 36.7964 32.0437 36.2703C32.0437 35.7514 32.2311 35.3514 32.6059 35.0703C32.9879 34.7892 33.6005 34.6486 34.4438 34.6486H35.6329V34.0973C35.6329 33.6865 35.5176 33.3802 35.287 33.1784C35.0564 32.9694 34.7284 32.8649 34.3032 32.8649C33.9284 32.8649 33.6221 32.9405 33.3843 33.0919C33.1465 33.236 32.9555 33.4342 32.8113 33.6865L32.2275 33.2541C32.2996 33.1099 32.3969 32.9694 32.5194 32.8324C32.6419 32.6955 32.7933 32.5766 32.9735 32.4757C33.1537 32.3676 33.3591 32.2847 33.5897 32.227C33.8203 32.1622 34.0762 32.1297 34.3573 32.1297C35.0131 32.1297 35.532 32.2955 35.914 32.627C36.3032 32.9586 36.4978 33.4198 36.4978 34.0108V37.0811H37.2762V37.8378H36.6816ZM34.1086 37.2432C34.332 37.2432 34.5338 37.218 34.714 37.1676C34.9014 37.1099 35.0636 37.0378 35.2005 36.9514C35.3374 36.8577 35.4419 36.7495 35.514 36.627C35.5933 36.4973 35.6329 36.3604 35.6329 36.2162V35.2973H34.4438C33.9248 35.2973 33.5465 35.3694 33.3086 35.5135C33.0708 35.6577 32.9519 35.8667 32.9519 36.1405V36.3676C32.9519 36.6559 33.0528 36.8757 33.2546 37.027C33.4636 37.1712 33.7483 37.2432 34.1086 37.2432Z" fill="white"></path> <path d="M38.4287 37.1027H40.0611V32.9946H38.4287V32.2595H40.926V33.6649H40.9801C41.0954 33.2252 41.3116 32.8829 41.6287 32.6378C41.953 32.3856 42.3639 32.2595 42.8611 32.2595H43.6395V33.1243H42.5909C42.0936 33.1243 41.69 33.2685 41.3801 33.5568C41.0774 33.845 40.926 34.2234 40.926 34.6919V37.1027H43.0882V37.8378H38.4287V37.1027Z" fill="white"></path> <path d="M47.2029 37.9676C46.7993 37.9676 46.4353 37.8991 46.111 37.7622C45.7939 37.6252 45.52 37.4306 45.2894 37.1784C45.0659 36.9189 44.893 36.6126 44.7704 36.2595C44.6479 35.8991 44.5867 35.4991 44.5867 35.0595C44.5867 34.6126 44.6479 34.209 44.7704 33.8486C44.9002 33.4883 45.0767 33.182 45.3002 32.9297C45.5236 32.6703 45.7903 32.4721 46.1002 32.3351C46.4173 32.1982 46.7668 32.1297 47.1488 32.1297C47.5236 32.1297 47.8623 32.1982 48.165 32.3351C48.4749 32.4721 48.738 32.6631 48.9542 32.9081C49.1704 33.1459 49.3362 33.4306 49.4515 33.7622C49.5668 34.0937 49.6245 34.4577 49.6245 34.8541V35.2649H45.4948V35.5243C45.4948 35.7694 45.5344 35.9964 45.6137 36.2054C45.693 36.4144 45.8047 36.5946 45.9488 36.7459C46.1002 36.8973 46.2803 37.0162 46.4894 37.1027C46.7056 37.182 46.9434 37.2216 47.2029 37.2216C47.5776 37.2216 47.902 37.1351 48.1758 36.9622C48.4497 36.7892 48.6587 36.5514 48.8029 36.2486L49.4407 36.6811C49.2749 37.0559 48.9975 37.3658 48.6083 37.6108C48.2263 37.8486 47.7578 37.9676 47.2029 37.9676ZM47.1488 32.8432C46.911 32.8432 46.6912 32.8865 46.4894 32.973C46.2876 33.0595 46.111 33.1784 45.9596 33.3297C45.8155 33.4811 45.7002 33.6613 45.6137 33.8703C45.5344 34.0721 45.4948 34.2955 45.4948 34.5405V34.6162H48.6948V34.4973C48.6948 34.2523 48.6551 34.0288 48.5758 33.827C48.5038 33.6252 48.3993 33.4523 48.2623 33.3081C48.1326 33.1568 47.9704 33.0414 47.7758 32.9622C47.5885 32.8829 47.3794 32.8432 47.1488 32.8432Z" fill="white"></path> <path d="M57.4214 30.2919H59.5296C60.4521 30.2919 61.1404 30.609 61.5944 31.2432C62.0485 31.8775 62.2755 32.818 62.2755 34.0649C62.2755 35.3117 62.0485 36.2523 61.5944 36.8865C61.1404 37.5207 60.4521 37.8378 59.5296 37.8378H57.4214V30.2919ZM59.4863 37.0486C60.0917 37.0486 60.5458 36.8396 60.8485 36.4216C61.1584 36.0036 61.3133 35.4126 61.3133 34.6486V33.4811C61.3133 32.7171 61.1584 32.1261 60.8485 31.7081C60.5458 31.2901 60.0917 31.0811 59.4863 31.0811H58.3296V37.0486H59.4863Z" fill="white"></path> <path d="M66.001 37.9676C65.5974 37.9676 65.2334 37.8991 64.9091 37.7622C64.592 37.6252 64.3181 37.4306 64.0875 37.1784C63.8641 36.9189 63.6911 36.6126 63.5686 36.2595C63.4461 35.8991 63.3848 35.4991 63.3848 35.0595C63.3848 34.6126 63.4461 34.209 63.5686 33.8486C63.6983 33.4883 63.8749 33.182 64.0983 32.9297C64.3217 32.6703 64.5884 32.4721 64.8983 32.3351C65.2154 32.1982 65.565 32.1297 65.947 32.1297C66.3217 32.1297 66.6605 32.1982 66.9632 32.3351C67.2731 32.4721 67.5361 32.6631 67.7524 32.9081C67.9686 33.1459 68.1343 33.4306 68.2497 33.7622C68.365 34.0937 68.4226 34.4577 68.4226 34.8541V35.2649H64.2929V35.5243C64.2929 35.7694 64.3325 35.9964 64.4118 36.2054C64.4911 36.4144 64.6028 36.5946 64.747 36.7459C64.8983 36.8973 65.0785 37.0162 65.2875 37.1027C65.5037 37.182 65.7416 37.2216 66.001 37.2216C66.3758 37.2216 66.7001 37.1351 66.974 36.9622C67.2479 36.7892 67.4569 36.5514 67.601 36.2486L68.2388 36.6811C68.0731 37.0559 67.7956 37.3658 67.4064 37.6108C67.0244 37.8486 66.556 37.9676 66.001 37.9676ZM65.947 32.8432C65.7091 32.8432 65.4893 32.8865 65.2875 32.973C65.0857 33.0595 64.9091 33.1784 64.7578 33.3297C64.6136 33.4811 64.4983 33.6613 64.4118 33.8703C64.3325 34.0721 64.2929 34.2955 64.2929 34.5405V34.6162H67.4929V34.4973C67.4929 34.2523 67.4533 34.0288 67.374 33.827C67.3019 33.6252 67.1974 33.4523 67.0605 33.3081C66.9307 33.1568 66.7686 33.0414 66.574 32.9622C66.3866 32.8829 66.1776 32.8432 65.947 32.8432Z" fill="white"></path> <path d="M71.6184 37.8378L69.6184 32.2595H70.4941L71.2941 34.5946L72.159 37.1135H72.2022L73.0671 34.5946L73.8671 32.2595H74.7211L72.7211 37.8378H71.6184Z" fill="white"></path> <path d="M78.5331 37.9676C78.1295 37.9676 77.7655 37.8991 77.4412 37.7622C77.1241 37.6252 76.8502 37.4306 76.6196 37.1784C76.3962 36.9189 76.2232 36.6126 76.1007 36.2595C75.9782 35.8991 75.9169 35.4991 75.9169 35.0595C75.9169 34.6126 75.9782 34.209 76.1007 33.8486C76.2304 33.4883 76.407 33.182 76.6304 32.9297C76.8538 32.6703 77.1205 32.4721 77.4304 32.3351C77.7475 32.1982 78.0971 32.1297 78.4791 32.1297C78.8538 32.1297 79.1926 32.1982 79.4953 32.3351C79.8052 32.4721 80.0682 32.6631 80.2845 32.9081C80.5007 33.1459 80.6664 33.4306 80.7818 33.7622C80.8971 34.0937 80.9547 34.4577 80.9547 34.8541V35.2649H76.825V35.5243C76.825 35.7694 76.8646 35.9964 76.9439 36.2054C77.0232 36.4144 77.1349 36.5946 77.2791 36.7459C77.4304 36.8973 77.6106 37.0162 77.8196 37.1027C78.0358 37.182 78.2736 37.2216 78.5331 37.2216C78.9079 37.2216 79.2322 37.1351 79.5061 36.9622C79.78 36.7892 79.989 36.5514 80.1331 36.2486L80.7709 36.6811C80.6052 37.0559 80.3277 37.3658 79.9385 37.6108C79.5565 37.8486 79.0881 37.9676 78.5331 37.9676ZM78.4791 32.8432C78.2412 32.8432 78.0214 32.8865 77.8196 32.973C77.6178 33.0595 77.4412 33.1784 77.2899 33.3297C77.1457 33.4811 77.0304 33.6613 76.9439 33.8703C76.8646 34.0721 76.825 34.2955 76.825 34.5405V34.6162H80.025V34.4973C80.025 34.2523 79.9854 34.0288 79.9061 33.827C79.834 33.6252 79.7295 33.4523 79.5926 33.3081C79.4628 33.1568 79.3007 33.0414 79.1061 32.9622C78.9187 32.8829 78.7097 32.8432 78.4791 32.8432Z" fill="white"></path> <path d="M82.3235 37.1027H84.2694V30.573H82.3235V29.8378H85.1343V37.1027H87.0802V37.8378H82.3235V37.1027Z" fill="white"></path> <path d="M90.9679 37.9676C90.5787 37.9676 90.2256 37.8991 89.9084 37.7622C89.5985 37.6252 89.3319 37.4306 89.1084 37.1784C88.8922 36.9189 88.7265 36.6126 88.6111 36.2595C88.4958 35.8991 88.4382 35.4955 88.4382 35.0486C88.4382 34.609 88.4958 34.209 88.6111 33.8486C88.7265 33.4883 88.8922 33.182 89.1084 32.9297C89.3319 32.6703 89.5985 32.4721 89.9084 32.3351C90.2256 32.1982 90.5787 32.1297 90.9679 32.1297C91.3571 32.1297 91.7066 32.1982 92.0166 32.3351C92.3337 32.4721 92.6003 32.6703 92.8165 32.9297C93.04 33.182 93.2093 33.4883 93.3247 33.8486C93.44 34.209 93.4976 34.609 93.4976 35.0486C93.4976 35.4955 93.44 35.8991 93.3247 36.2595C93.2093 36.6126 93.04 36.9189 92.8165 37.1784C92.6003 37.4306 92.3337 37.6252 92.0166 37.7622C91.7066 37.8991 91.3571 37.9676 90.9679 37.9676ZM90.9679 37.2216C91.4508 37.2216 91.84 37.0775 92.1355 36.7892C92.431 36.5009 92.5787 36.0541 92.5787 35.4486V34.6486C92.5787 34.0432 92.431 33.5964 92.1355 33.3081C91.84 33.0198 91.4508 32.8757 90.9679 32.8757C90.485 32.8757 90.0958 33.0198 89.8003 33.3081C89.5048 33.5964 89.3571 34.0432 89.3571 34.6486V35.4486C89.3571 36.0541 89.5048 36.5009 89.8003 36.7892C90.0958 37.0775 90.485 37.2216 90.9679 37.2216Z" fill="white"></path> <path d="M95.0177 32.2595H95.8826V33.1676H95.9258C96.2862 32.4757 96.8592 32.1297 97.6448 32.1297C98.3294 32.1297 98.8628 32.3856 99.2448 32.8973C99.6339 33.409 99.8285 34.1261 99.8285 35.0486C99.8285 35.9712 99.6339 36.6883 99.2448 37.2C98.8628 37.7117 98.3294 37.9676 97.6448 37.9676C96.8592 37.9676 96.2862 37.6216 95.9258 36.9297H95.8826V40H95.0177V32.2595ZM97.3096 37.2C97.8141 37.2 98.2033 37.0486 98.4772 36.7459C98.7583 36.436 98.8988 36.0288 98.8988 35.5243V34.573C98.8988 34.0685 98.7583 33.6649 98.4772 33.3622C98.2033 33.0523 97.8141 32.8973 97.3096 32.8973C97.115 32.8973 96.9312 32.9225 96.7583 32.973C96.5853 33.0234 96.4339 33.0991 96.3042 33.2C96.1745 33.2937 96.07 33.4126 95.9907 33.5568C95.9186 33.6937 95.8826 33.8559 95.8826 34.0432V36.0541C95.8826 36.2414 95.9186 36.4072 95.9907 36.5514C96.07 36.6883 96.1745 36.8072 96.3042 36.9081C96.4339 37.0018 96.5853 37.0739 96.7583 37.1243C96.9312 37.1748 97.115 37.2 97.3096 37.2Z" fill="white"></path> <path d="M100.841 37.8378V32.2595H101.641V32.9081H101.684C101.77 32.6919 101.893 32.5081 102.051 32.3568C102.21 32.2054 102.444 32.1297 102.754 32.1297C103.078 32.1297 103.32 32.2126 103.478 32.3784C103.637 32.5369 103.734 32.7459 103.77 33.0054H103.803C103.904 32.7532 104.048 32.5441 104.235 32.3784C104.423 32.2126 104.682 32.1297 105.014 32.1297C105.468 32.1297 105.77 32.2883 105.922 32.6054C106.08 32.9225 106.159 33.3766 106.159 33.9676V37.8378H105.359V34.1081C105.359 33.6324 105.309 33.3045 105.208 33.1243C105.114 32.9369 104.938 32.8432 104.678 32.8432C104.448 32.8432 104.26 32.9189 104.116 33.0703C103.972 33.2144 103.9 33.4378 103.9 33.7405V37.8378H103.1V34.1081C103.1 33.6324 103.05 33.3045 102.949 33.1243C102.855 32.9369 102.682 32.8432 102.43 32.8432C102.199 32.8432 102.008 32.9189 101.857 33.0703C101.713 33.2144 101.641 33.4378 101.641 33.7405V37.8378H100.841Z" fill="white"></path> <path d="M109.863 37.9676C109.46 37.9676 109.096 37.8991 108.771 37.7622C108.454 37.6252 108.18 37.4306 107.95 37.1784C107.726 36.9189 107.553 36.6126 107.431 36.2595C107.308 35.8991 107.247 35.4991 107.247 35.0595C107.247 34.6126 107.308 34.209 107.431 33.8486C107.561 33.4883 107.737 33.182 107.961 32.9297C108.184 32.6703 108.451 32.4721 108.761 32.3351C109.078 32.1982 109.427 32.1297 109.809 32.1297C110.184 32.1297 110.523 32.1982 110.825 32.3351C111.135 32.4721 111.398 32.6631 111.615 32.9081C111.831 33.1459 111.997 33.4306 112.112 33.7622C112.227 34.0937 112.285 34.4577 112.285 34.8541V35.2649H108.155V35.5243C108.155 35.7694 108.195 35.9964 108.274 36.2054C108.353 36.4144 108.465 36.5946 108.609 36.7459C108.761 36.8973 108.941 37.0162 109.15 37.1027C109.366 37.182 109.604 37.2216 109.863 37.2216C110.238 37.2216 110.562 37.1351 110.836 36.9622C111.11 36.7892 111.319 36.5514 111.463 36.2486L112.101 36.6811C111.935 37.0559 111.658 37.3658 111.269 37.6108C110.887 37.8486 110.418 37.9676 109.863 37.9676ZM109.809 32.8432C109.571 32.8432 109.352 32.8865 109.15 32.973C108.948 33.0595 108.771 33.1784 108.62 33.3297C108.476 33.4811 108.361 33.6613 108.274 33.8703C108.195 34.0721 108.155 34.2955 108.155 34.5405V34.6162H111.355V34.4973C111.355 34.2523 111.316 34.0288 111.236 33.827C111.164 33.6252 111.06 33.4523 110.923 33.3081C110.793 33.1568 110.631 33.0414 110.436 32.9622C110.249 32.8829 110.04 32.8432 109.809 32.8432Z" fill="white"></path> <path d="M113.848 37.8378V32.2595H114.713V33.1676H114.756C114.814 33.0306 114.886 32.9009 114.973 32.7784C115.059 32.6486 115.164 32.5369 115.286 32.4432C115.416 32.3495 115.567 32.2739 115.74 32.2162C115.913 32.1586 116.115 32.1297 116.346 32.1297C116.929 32.1297 117.398 32.3171 117.751 32.6919C118.104 33.0595 118.281 33.582 118.281 34.2595V37.8378H117.416V34.4108C117.416 33.8991 117.304 33.5207 117.081 33.2757C116.857 33.0234 116.529 32.8973 116.097 32.8973C115.924 32.8973 115.755 32.9189 115.589 32.9622C115.423 33.0054 115.275 33.0703 115.146 33.1568C115.016 33.2432 114.911 33.355 114.832 33.4919C114.753 33.6288 114.713 33.7874 114.713 33.9676V37.8378H113.848Z" fill="white"></path> <path d="M122.568 37.8378C122.143 37.8378 121.83 37.7189 121.628 37.4811C121.433 37.2432 121.336 36.9369 121.336 36.5622V32.9946H119.477V32.2595H120.86C121.048 32.2595 121.177 32.2234 121.249 32.1514C121.329 32.0721 121.368 31.9387 121.368 31.7514V30.2919H122.201V32.2595H124.741V32.9946H122.201V37.1027H124.741V37.8378H122.568Z" fill="white"></path> </svg> 