<?xml version="1.0" encoding="UTF-8"?> <svg xmlns="http://www.w3.org/2000/svg" width="93" height="30" viewBox="0 0 93 30" fill="none"> <path d="M5.9243 15.875V2.8125H0V0.5H15.2858V2.8125H9.38946V15.875H5.9243Z" fill="#2E2D42"></path> <path d="M22.2244 15.9792C20.6036 15.9792 19.3089 15.8125 18.3401 15.4792C17.39 15.1458 16.7007 14.5694 16.2722 13.75C15.8623 12.9167 15.6574 11.7639 15.6574 10.2917C15.6574 8.79167 15.853 7.625 16.2442 6.79167C16.6541 5.95833 17.3341 5.38194 18.2842 5.0625C19.2343 4.72917 20.5198 4.5625 22.1406 4.5625C23.5565 4.5625 24.7022 4.67361 25.5778 4.89583C26.4534 5.10417 27.0868 5.48611 27.4781 6.04167C27.8879 6.59722 28.0928 7.36806 28.0928 8.35417C28.0928 9.4375 27.6737 10.1875 26.8353 10.6042C25.997 11.0208 24.8699 11.2292 23.454 11.2292H19.0667C19.1039 11.9236 19.225 12.4792 19.4299 12.8958C19.6535 13.2986 20.0447 13.5903 20.6036 13.7708C21.1812 13.9514 22.0195 14.0417 23.1187 14.0417H27.6457V15.5625C26.8819 15.6736 26.0715 15.7708 25.2145 15.8542C24.3762 15.9375 23.3795 15.9792 22.2244 15.9792ZM19.0387 9.66667H23.1187C23.7707 9.66667 24.2458 9.57639 24.5438 9.39583C24.8606 9.20139 25.0189 8.85417 25.0189 8.35417C25.0189 7.63194 24.7954 7.13194 24.3482 6.85417C23.9197 6.57639 23.1839 6.4375 22.1406 6.4375C21.3581 6.4375 20.734 6.52778 20.2683 6.70833C19.8212 6.88889 19.5045 7.21528 19.3182 7.6875C19.1319 8.15972 19.0387 8.81944 19.0387 9.66667Z" fill="#2E2D42"></path> <path d="M36.8972 16C35.7049 16 34.643 15.8403 33.7115 15.5208C32.78 15.1875 32.0441 14.6111 31.5039 13.7917C30.9822 12.9722 30.7214 11.8194 30.7214 10.3333C30.7214 8.80556 30.9636 7.625 31.448 6.79167C31.951 5.95833 32.6682 5.38194 33.5997 5.0625C34.5498 4.72917 35.6769 4.5625 36.981 4.5625C37.838 4.5625 38.6857 4.59722 39.524 4.66667C40.3624 4.72222 41.2193 4.83333 42.0949 5V6.47917H38.015C37.1208 6.47917 36.3849 6.58333 35.8074 6.79167C35.2485 7 34.8293 7.38194 34.5498 7.9375C34.289 8.49305 34.1586 9.29167 34.1586 10.3333C34.1586 11.3611 34.2983 12.1389 34.5778 12.6667C34.8572 13.1944 35.2764 13.5556 35.8353 13.75C36.4128 13.9444 37.1487 14.0417 38.0429 14.0417H42.3185V15.5C41.6292 15.6389 40.7908 15.7569 39.8035 15.8542C38.8347 15.9514 37.866 16 36.8972 16Z" fill="#2E2D42"></path> <path d="M44.868 15.875V0H48.3332V5.875C48.9107 5.54167 49.6559 5.23611 50.5688 4.95833C51.4816 4.66667 52.4131 4.52083 53.3632 4.52083C54.4624 4.52083 55.3473 4.69444 56.018 5.04167C56.7073 5.375 57.201 5.83333 57.4991 6.41667C57.8158 7 57.9741 7.66667 57.9741 8.41667V15.875H54.509V8.72917C54.509 8.14583 54.2761 7.6875 53.8104 7.35417C53.3632 7.02083 52.7671 6.85417 52.0219 6.85417C51.2953 6.85417 50.6433 6.9375 50.0658 7.10417C49.4882 7.27083 48.9107 7.49306 48.3332 7.77083V15.875H44.868Z" fill="#2E2D42"></path> <path d="M64.5348 15.875V2.83333L60.6505 3.35417V1.70833L64.8981 0.354166H68V15.875H64.5348Z" fill="#2E2D42"></path> <path d="M2.384 28.096C1.88267 28.096 1.472 28.0053 1.152 27.824C0.832001 27.6373 0.568001 27.4 0.360001 27.112L0.848001 26.712C1.06667 26.984 1.296 27.1867 1.536 27.32C1.78133 27.4533 2.072 27.52 2.408 27.52C2.81333 27.52 3.12267 27.4267 3.336 27.24C3.54933 27.0533 3.656 26.792 3.656 26.456C3.656 26.184 3.57867 25.9733 3.424 25.824C3.26933 25.6693 3 25.56 2.616 25.496L1.992 25.392C1.72 25.344 1.49067 25.272 1.304 25.176C1.12267 25.08 0.976001 24.9653 0.864001 24.832C0.752001 24.6933 0.672001 24.544 0.624001 24.384C0.576001 24.2187 0.552001 24.048 0.552001 23.872C0.552001 23.36 0.720001 22.9733 1.056 22.712C1.392 22.4507 1.84533 22.32 2.416 22.32C2.864 22.32 3.24 22.3947 3.544 22.544C3.85333 22.6933 4.10133 22.904 4.288 23.176L3.816 23.584C3.66133 23.3813 3.47467 23.216 3.256 23.088C3.03733 22.96 2.75467 22.896 2.408 22.896C2.02933 22.896 1.73867 22.976 1.536 23.136C1.33333 23.296 1.232 23.536 1.232 23.856C1.232 24.1067 1.30667 24.312 1.456 24.472C1.61067 24.6267 1.88533 24.7387 2.28 24.808L2.88 24.912C3.152 24.96 3.38133 25.032 3.568 25.128C3.75467 25.224 3.904 25.3387 4.016 25.472C4.13333 25.6053 4.216 25.7547 4.264 25.92C4.312 26.0853 4.336 26.2587 4.336 26.44C4.336 26.9573 4.16533 27.3627 3.824 27.656C3.488 27.9493 3.008 28.096 2.384 28.096Z" fill="#2E2D42"></path> <path d="M7.03688 28.096C6.74888 28.096 6.48754 28.0453 6.25288 27.944C6.02354 27.8427 5.82621 27.6987 5.66088 27.512C5.50088 27.32 5.37821 27.0933 5.29288 26.832C5.20754 26.5653 5.16488 26.2667 5.16488 25.936C5.16488 25.6107 5.20754 25.3147 5.29288 25.048C5.37821 24.7813 5.50088 24.5547 5.66088 24.368C5.82621 24.176 6.02354 24.0293 6.25288 23.928C6.48754 23.8267 6.74888 23.776 7.03688 23.776C7.32488 23.776 7.58354 23.8267 7.81288 23.928C8.04754 24.0293 8.24488 24.176 8.40488 24.368C8.57021 24.5547 8.69554 24.7813 8.78088 25.048C8.86621 25.3147 8.90888 25.6107 8.90888 25.936C8.90888 26.2667 8.86621 26.5653 8.78088 26.832C8.69554 27.0933 8.57021 27.32 8.40488 27.512C8.24488 27.6987 8.04754 27.8427 7.81288 27.944C7.58354 28.0453 7.32488 28.096 7.03688 28.096ZM7.03688 27.544C7.39421 27.544 7.68221 27.4373 7.90088 27.224C8.11954 27.0107 8.22888 26.68 8.22888 26.232V25.64C8.22888 25.192 8.11954 24.8613 7.90088 24.648C7.68221 24.4347 7.39421 24.328 7.03688 24.328C6.67954 24.328 6.39154 24.4347 6.17288 24.648C5.95421 24.8613 5.84488 25.192 5.84488 25.64V26.232C5.84488 26.68 5.95421 27.0107 6.17288 27.224C6.39154 27.4373 6.67954 27.544 7.03688 27.544Z" fill="#2E2D42"></path> <path d="M9.93775 27.456H11.3298V24.416H9.85775V23.872H11.3298V23.024C11.3298 22.7467 11.4018 22.52 11.5458 22.344C11.6951 22.168 11.9271 22.08 12.2418 22.08H13.6258V22.624H11.9698V23.872H13.6258V24.416H11.9698V27.456H13.4418V28H9.93775V27.456Z" fill="#2E2D42"></path> <path d="M16.5106 28C16.196 28 15.964 27.912 15.8146 27.736C15.6706 27.56 15.5986 27.3333 15.5986 27.056V24.416H14.2226V23.872H15.2466C15.3853 23.872 15.4813 23.8453 15.5346 23.792C15.5933 23.7333 15.6226 23.6347 15.6226 23.496V22.416H16.2386V23.872H18.1186V24.416H16.2386V27.456H18.1186V28H16.5106Z" fill="#2E2D42"></path> <path d="M18.7875 23.872H19.3555L19.8275 27.44H19.8995L20.6035 23.872H21.3075L22.0115 27.44H22.0835L22.5555 23.872H23.1075L22.4755 28H21.6435L20.9875 24.544H20.9235L20.2515 28H19.4195L18.7875 23.872Z" fill="#2E2D42"></path> <path d="M27.1444 28C26.8937 28 26.715 27.936 26.6084 27.808C26.5017 27.68 26.435 27.52 26.4084 27.328H26.3684C26.2777 27.568 26.131 27.7573 25.9284 27.896C25.731 28.0293 25.4644 28.096 25.1284 28.096C24.6964 28.096 24.3524 27.984 24.0964 27.76C23.8404 27.536 23.7124 27.2293 23.7124 26.84C23.7124 26.456 23.851 26.16 24.1284 25.952C24.411 25.744 24.8644 25.64 25.4884 25.64H26.3684V25.232C26.3684 24.928 26.283 24.7013 26.1124 24.552C25.9417 24.3973 25.699 24.32 25.3844 24.32C25.107 24.32 24.8804 24.376 24.7044 24.488C24.5284 24.5947 24.387 24.7413 24.2804 24.928L23.8484 24.608C23.9017 24.5013 23.9737 24.3973 24.0644 24.296C24.155 24.1947 24.267 24.1067 24.4004 24.032C24.5337 23.952 24.6857 23.8907 24.8564 23.848C25.027 23.8 25.2164 23.776 25.4244 23.776C25.9097 23.776 26.2937 23.8987 26.5764 24.144C26.8644 24.3893 27.0084 24.7307 27.0084 25.168V27.44H27.5844V28H27.1444ZM25.2404 27.56C25.4057 27.56 25.555 27.5413 25.6884 27.504C25.827 27.4613 25.947 27.408 26.0484 27.344C26.1497 27.2747 26.227 27.1947 26.2804 27.104C26.339 27.008 26.3684 26.9067 26.3684 26.8V26.12H25.4884C25.1044 26.12 24.8244 26.1733 24.6484 26.28C24.4724 26.3867 24.3844 26.5413 24.3844 26.744V26.912C24.3844 27.1253 24.459 27.288 24.6084 27.4C24.763 27.5067 24.9737 27.56 25.2404 27.56Z" fill="#2E2D42"></path> <path d="M28.4373 27.456H29.6453V24.416H28.4373V23.872H30.2853V24.912H30.3253C30.4106 24.5867 30.5706 24.3333 30.8053 24.152C31.0453 23.9653 31.3493 23.872 31.7173 23.872H32.2933V24.512H31.5173C31.1493 24.512 30.8506 24.6187 30.6213 24.832C30.3973 25.0453 30.2853 25.3253 30.2853 25.672V27.456H31.8853V28H28.4373V27.456Z" fill="#2E2D42"></path> <path d="M34.9301 28.096C34.6315 28.096 34.3621 28.0453 34.1221 27.944C33.8875 27.8427 33.6848 27.6987 33.5141 27.512C33.3488 27.32 33.2208 27.0933 33.1301 26.832C33.0395 26.5653 32.9941 26.2693 32.9941 25.944C32.9941 25.6133 33.0395 25.3147 33.1301 25.048C33.2261 24.7813 33.3568 24.5547 33.5221 24.368C33.6875 24.176 33.8848 24.0293 34.1141 23.928C34.3488 23.8267 34.6075 23.776 34.8901 23.776C35.1675 23.776 35.4181 23.8267 35.6421 23.928C35.8715 24.0293 36.0661 24.1707 36.2261 24.352C36.3861 24.528 36.5088 24.7387 36.5941 24.984C36.6795 25.2293 36.7221 25.4987 36.7221 25.792V26.096H33.6661V26.288C33.6661 26.4693 33.6955 26.6373 33.7541 26.792C33.8128 26.9467 33.8955 27.08 34.0021 27.192C34.1141 27.304 34.2475 27.392 34.4021 27.456C34.5621 27.5147 34.7381 27.544 34.9301 27.544C35.2075 27.544 35.4475 27.48 35.6501 27.352C35.8528 27.224 36.0075 27.048 36.1141 26.824L36.5861 27.144C36.4635 27.4213 36.2581 27.6507 35.9701 27.832C35.6875 28.008 35.3408 28.096 34.9301 28.096ZM34.8901 24.304C34.7141 24.304 34.5515 24.336 34.4021 24.4C34.2528 24.464 34.1221 24.552 34.0101 24.664C33.9035 24.776 33.8181 24.9093 33.7541 25.064C33.6955 25.2133 33.6661 25.3787 33.6661 25.56V25.616H36.0341V25.528C36.0341 25.3467 36.0048 25.1813 35.9461 25.032C35.8928 24.8827 35.8155 24.7547 35.7141 24.648C35.6181 24.536 35.4981 24.4507 35.3541 24.392C35.2155 24.3333 35.0608 24.304 34.8901 24.304Z" fill="#2E2D42"></path> <path d="M42.4919 22.416H44.0519C44.7345 22.416 45.2439 22.6507 45.5799 23.12C45.9159 23.5893 46.0839 24.2853 46.0839 25.208C46.0839 26.1307 45.9159 26.8267 45.5799 27.296C45.2439 27.7653 44.7345 28 44.0519 28H42.4919V22.416ZM44.0199 27.416C44.4679 27.416 44.8039 27.2613 45.0279 26.952C45.2572 26.6427 45.3719 26.2053 45.3719 25.64V24.776C45.3719 24.2107 45.2572 23.7733 45.0279 23.464C44.8039 23.1547 44.4679 23 44.0199 23H43.1639V27.416H44.0199Z" fill="#2E2D42"></path> <path d="M48.8408 28.096C48.5421 28.096 48.2728 28.0453 48.0328 27.944C47.7981 27.8427 47.5954 27.6987 47.4248 27.512C47.2594 27.32 47.1314 27.0933 47.0408 26.832C46.9501 26.5653 46.9048 26.2693 46.9048 25.944C46.9048 25.6133 46.9501 25.3147 47.0408 25.048C47.1368 24.7813 47.2674 24.5547 47.4328 24.368C47.5981 24.176 47.7954 24.0293 48.0247 23.928C48.2594 23.8267 48.5181 23.776 48.8008 23.776C49.0781 23.776 49.3288 23.8267 49.5528 23.928C49.7821 24.0293 49.9768 24.1707 50.1368 24.352C50.2968 24.528 50.4194 24.7387 50.5048 24.984C50.5901 25.2293 50.6328 25.4987 50.6328 25.792V26.096H47.5768V26.288C47.5768 26.4693 47.6061 26.6373 47.6648 26.792C47.7234 26.9467 47.8061 27.08 47.9128 27.192C48.0248 27.304 48.1581 27.392 48.3128 27.456C48.4728 27.5147 48.6488 27.544 48.8408 27.544C49.1181 27.544 49.3581 27.48 49.5608 27.352C49.7634 27.224 49.9181 27.048 50.0247 26.824L50.4967 27.144C50.3741 27.4213 50.1688 27.6507 49.8808 27.832C49.5981 28.008 49.2514 28.096 48.8408 28.096ZM48.8008 24.304C48.6248 24.304 48.4621 24.336 48.3128 24.4C48.1634 24.464 48.0328 24.552 47.9208 24.664C47.8141 24.776 47.7288 24.9093 47.6648 25.064C47.6061 25.2133 47.5768 25.3787 47.5768 25.56V25.616H49.9448V25.528C49.9448 25.3467 49.9154 25.1813 49.8568 25.032C49.8034 24.8827 49.7261 24.7547 49.6248 24.648C49.5288 24.536 49.4088 24.4507 49.2648 24.392C49.1261 24.3333 48.9714 24.304 48.8008 24.304Z" fill="#2E2D42"></path> <path d="M52.9976 28L51.5176 23.872H52.1656L52.7576 25.6L53.3976 27.464H53.4296L54.0696 25.6L54.6616 23.872H55.2936L53.8136 28H52.9976Z" fill="#2E2D42"></path> <path d="M58.1145 28.096C57.8158 28.096 57.5465 28.0453 57.3065 27.944C57.0718 27.8427 56.8692 27.6987 56.6985 27.512C56.5332 27.32 56.4052 27.0933 56.3145 26.832C56.2238 26.5653 56.1785 26.2693 56.1785 25.944C56.1785 25.6133 56.2238 25.3147 56.3145 25.048C56.4105 24.7813 56.5412 24.5547 56.7065 24.368C56.8718 24.176 57.0692 24.0293 57.2985 23.928C57.5332 23.8267 57.7918 23.776 58.0745 23.776C58.3518 23.776 58.6025 23.8267 58.8265 23.928C59.0558 24.0293 59.2505 24.1707 59.4105 24.352C59.5705 24.528 59.6932 24.7387 59.7785 24.984C59.8638 25.2293 59.9065 25.4987 59.9065 25.792V26.096H56.8505V26.288C56.8505 26.4693 56.8798 26.6373 56.9385 26.792C56.9972 26.9467 57.0798 27.08 57.1865 27.192C57.2985 27.304 57.4318 27.392 57.5865 27.456C57.7465 27.5147 57.9225 27.544 58.1145 27.544C58.3918 27.544 58.6318 27.48 58.8345 27.352C59.0372 27.224 59.1918 27.048 59.2985 26.824L59.7705 27.144C59.6478 27.4213 59.4425 27.6507 59.1545 27.832C58.8718 28.008 58.5252 28.096 58.1145 28.096ZM58.0745 24.304C57.8985 24.304 57.7358 24.336 57.5865 24.4C57.4372 24.464 57.3065 24.552 57.1945 24.664C57.0878 24.776 57.0025 24.9093 56.9385 25.064C56.8798 25.2133 56.8505 25.3787 56.8505 25.56V25.616H59.2185V25.528C59.2185 25.3467 59.1892 25.1813 59.1305 25.032C59.0772 24.8827 58.9998 24.7547 58.8985 24.648C58.8025 24.536 58.6825 24.4507 58.5385 24.392C58.3998 24.3333 58.2452 24.304 58.0745 24.304Z" fill="#2E2D42"></path> <path d="M60.9194 27.456H62.3594V22.624H60.9194V22.08H62.9994V27.456H64.4394V28H60.9194V27.456Z" fill="#2E2D42"></path> <path d="M67.3163 28.096C67.0283 28.096 66.7669 28.0453 66.5322 27.944C66.3029 27.8427 66.1056 27.6987 65.9403 27.512C65.7803 27.32 65.6576 27.0933 65.5723 26.832C65.4869 26.5653 65.4443 26.2667 65.4443 25.936C65.4443 25.6107 65.4869 25.3147 65.5723 25.048C65.6576 24.7813 65.7803 24.5547 65.9403 24.368C66.1056 24.176 66.3029 24.0293 66.5322 23.928C66.7669 23.8267 67.0283 23.776 67.3163 23.776C67.6043 23.776 67.8629 23.8267 68.0923 23.928C68.3269 24.0293 68.5242 24.176 68.6842 24.368C68.8496 24.5547 68.9749 24.7813 69.0602 25.048C69.1456 25.3147 69.1883 25.6107 69.1883 25.936C69.1883 26.2667 69.1456 26.5653 69.0602 26.832C68.9749 27.0933 68.8496 27.32 68.6842 27.512C68.5242 27.6987 68.3269 27.8427 68.0923 27.944C67.8629 28.0453 67.6043 28.096 67.3163 28.096ZM67.3163 27.544C67.6736 27.544 67.9616 27.4373 68.1803 27.224C68.3989 27.0107 68.5083 26.68 68.5083 26.232V25.64C68.5083 25.192 68.3989 24.8613 68.1803 24.648C67.9616 24.4347 67.6736 24.328 67.3163 24.328C66.9589 24.328 66.6709 24.4347 66.4523 24.648C66.2336 24.8613 66.1243 25.192 66.1243 25.64V26.232C66.1243 26.68 66.2336 27.0107 66.4523 27.224C66.6709 27.4373 66.9589 27.544 67.3163 27.544Z" fill="#2E2D42"></path> <path d="M70.3131 23.872H70.9531V24.544H70.9851C71.2518 24.032 71.6758 23.776 72.2571 23.776C72.7638 23.776 73.1585 23.9653 73.4411 24.344C73.7291 24.7227 73.8731 25.2533 73.8731 25.936C73.8731 26.6187 73.7291 27.1493 73.4411 27.528C73.1585 27.9067 72.7638 28.096 72.2571 28.096C71.6758 28.096 71.2518 27.84 70.9851 27.328H70.9531V29.6H70.3131V23.872ZM72.0091 27.528C72.3825 27.528 72.6705 27.416 72.8731 27.192C73.0811 26.9627 73.1851 26.6613 73.1851 26.288V25.584C73.1851 25.2107 73.0811 24.912 72.8731 24.688C72.6705 24.4587 72.3825 24.344 72.0091 24.344C71.8651 24.344 71.7291 24.3627 71.6011 24.4C71.4731 24.4373 71.3611 24.4933 71.2651 24.568C71.1691 24.6373 71.0918 24.7253 71.0331 24.832C70.9798 24.9333 70.9531 25.0533 70.9531 25.192V26.68C70.9531 26.8187 70.9798 26.9413 71.0331 27.048C71.0918 27.1493 71.1691 27.2373 71.2651 27.312C71.3611 27.3813 71.4731 27.4347 71.6011 27.472C71.7291 27.5093 71.8651 27.528 72.0091 27.528Z" fill="#2E2D42"></path> <path d="M74.622 28V23.872H75.214V24.352H75.246C75.31 24.192 75.4007 24.056 75.518 23.944C75.6353 23.832 75.8087 23.776 76.038 23.776C76.278 23.776 76.4567 23.8373 76.574 23.96C76.6913 24.0773 76.7633 24.232 76.79 24.424H76.814C76.8887 24.2373 76.9953 24.0827 77.134 23.96C77.2727 23.8373 77.4647 23.776 77.71 23.776C78.046 23.776 78.27 23.8933 78.382 24.128C78.4993 24.3627 78.558 24.6987 78.558 25.136V28H77.966V25.24C77.966 24.888 77.9287 24.6453 77.854 24.512C77.7847 24.3733 77.654 24.304 77.462 24.304C77.2913 24.304 77.1527 24.36 77.046 24.472C76.9393 24.5787 76.886 24.744 76.886 24.968V28H76.294V25.24C76.294 24.888 76.2567 24.6453 76.182 24.512C76.1127 24.3733 75.9847 24.304 75.798 24.304C75.6273 24.304 75.486 24.36 75.374 24.472C75.2673 24.5787 75.214 24.744 75.214 24.968V28H74.622Z" fill="#2E2D42"></path> <path d="M81.2989 28.096C81.0002 28.096 80.7309 28.0453 80.4909 27.944C80.2562 27.8427 80.0535 27.6987 79.8829 27.512C79.7175 27.32 79.5895 27.0933 79.4989 26.832C79.4082 26.5653 79.3629 26.2693 79.3629 25.944C79.3629 25.6133 79.4082 25.3147 79.4989 25.048C79.5949 24.7813 79.7255 24.5547 79.8909 24.368C80.0562 24.176 80.2535 24.0293 80.4829 23.928C80.7175 23.8267 80.9762 23.776 81.2589 23.776C81.5362 23.776 81.7869 23.8267 82.0109 23.928C82.2402 24.0293 82.4349 24.1707 82.5949 24.352C82.7549 24.528 82.8775 24.7387 82.9629 24.984C83.0482 25.2293 83.0909 25.4987 83.0909 25.792V26.096H80.0349V26.288C80.0349 26.4693 80.0642 26.6373 80.1229 26.792C80.1815 26.9467 80.2642 27.08 80.3709 27.192C80.4829 27.304 80.6162 27.392 80.7709 27.456C80.9309 27.5147 81.1069 27.544 81.2989 27.544C81.5762 27.544 81.8162 27.48 82.0189 27.352C82.2215 27.224 82.3762 27.048 82.4829 26.824L82.9549 27.144C82.8322 27.4213 82.6269 27.6507 82.3389 27.832C82.0562 28.008 81.7095 28.096 81.2989 28.096ZM81.2589 24.304C81.0829 24.304 80.9202 24.336 80.7709 24.4C80.6215 24.464 80.4909 24.552 80.3789 24.664C80.2722 24.776 80.1869 24.9093 80.1229 25.064C80.0642 25.2133 80.0349 25.3787 80.0349 25.56V25.616H82.4029V25.528C82.4029 25.3467 82.3735 25.1813 82.3149 25.032C82.2615 24.8827 82.1842 24.7547 82.0829 24.648C81.9869 24.536 81.8669 24.4507 81.7229 24.392C81.5842 24.3333 81.4295 24.304 81.2589 24.304Z" fill="#2E2D42"></path> <path d="M84.2477 28V23.872H84.8878V24.544H84.9198C84.9624 24.4427 85.0158 24.3467 85.0798 24.256C85.1438 24.16 85.2211 24.0773 85.3118 24.008C85.4078 23.9387 85.5198 23.8827 85.6478 23.84C85.7758 23.7973 85.9251 23.776 86.0958 23.776C86.5278 23.776 86.8744 23.9147 87.1357 24.192C87.3971 24.464 87.5278 24.8507 87.5278 25.352V28H86.8878V25.464C86.8878 25.0853 86.8051 24.8053 86.6398 24.624C86.4744 24.4373 86.2318 24.344 85.9118 24.344C85.7838 24.344 85.6584 24.36 85.5358 24.392C85.4131 24.424 85.3038 24.472 85.2078 24.536C85.1118 24.6 85.0344 24.6827 84.9758 24.784C84.9171 24.8853 84.8878 25.0027 84.8878 25.136V28H84.2477Z" fill="#2E2D42"></path> <path d="M90.7006 28C90.386 28 90.154 27.912 90.0046 27.736C89.8606 27.56 89.7886 27.3333 89.7886 27.056V24.416H88.4126V23.872H89.4366C89.5753 23.872 89.6713 23.8453 89.7246 23.792C89.7833 23.7333 89.8126 23.6347 89.8126 23.496V22.416H90.4286V23.872H92.3086V24.416H90.4286V27.456H92.3086V28H90.7006Z" fill="#2E2D42"></path> </svg> 