<?xml version="1.0" encoding="UTF-8"?> <svg xmlns="http://www.w3.org/2000/svg" width="64" height="64" viewBox="0 0 64 64" fill="none"> <g clip-path="url(#clip0)"> <path d="M18.0347 32.0959C18.0347 32.8853 18.1201 33.5226 18.2694 33.9893C18.4401 34.4586 18.6534 34.9706 18.9521 35.5253C19.0587 35.6933 19.1014 35.8639 19.1014 36.0133C19.1014 36.2266 18.9734 36.4399 18.6961 36.6533L17.3547 37.5466C17.1926 37.6635 16.9998 37.7303 16.8001 37.7386C16.5867 37.7386 16.3734 37.6319 16.1627 37.4399C15.8763 37.1318 15.62 36.7969 15.3974 36.4399C15.159 36.031 14.9384 35.6119 14.7361 35.1839C13.0774 37.1413 10.9894 38.1199 8.47741 38.1199C6.69074 38.1199 5.26408 37.6106 4.22141 36.5893C3.17874 35.5653 2.64808 34.2053 2.64808 32.5013C2.64808 30.6933 3.28541 29.2213 4.58408 28.1173C5.88274 27.0106 7.60541 26.4559 9.79741 26.4559C10.5227 26.4559 11.2667 26.5199 12.0534 26.6266C12.8427 26.7333 13.6534 26.9039 14.5014 27.0959V25.5413C14.5014 23.9226 14.1627 22.7946 13.5014 22.1359C12.8214 21.4746 11.6721 21.1573 10.0347 21.1573C9.28808 21.1573 8.52008 21.2399 7.73341 21.4319C6.94674 21.6239 6.17874 21.8586 5.43474 22.1573C5.19216 22.2659 4.94274 22.3585 4.68808 22.4346C4.5784 22.4699 4.46452 22.4906 4.34941 22.4959C4.05074 22.4959 3.90141 22.2826 3.90141 21.8373V20.7946C3.90141 20.4533 3.94408 20.1973 4.05074 20.0479C4.21183 19.8543 4.41654 19.7017 4.64808 19.6026C5.50091 19.1792 6.40035 18.857 7.32808 18.6426C8.41346 18.3647 9.5304 18.2294 10.6507 18.2399C13.1841 18.2399 15.0347 18.8159 16.2267 19.9653C17.3974 21.1119 17.9921 22.8586 17.9921 25.1999V32.0959H18.0347ZM9.39474 35.3333C10.0961 35.3333 10.8187 35.2053 11.5867 34.9493C12.3674 34.6795 13.0641 34.2107 13.6081 33.5893C13.9519 33.1962 14.2001 32.7289 14.3334 32.2239C14.4587 31.7146 14.5467 31.0959 14.5467 30.3733V29.4799C13.9007 29.3224 13.2463 29.2014 12.5867 29.1173C11.9234 29.033 11.2554 28.9902 10.5867 28.9893C9.16008 28.9893 8.11741 29.2666 7.41341 29.8426C6.71208 30.4159 6.37341 31.2239 6.37341 32.2879C6.37341 33.2879 6.62674 34.0346 7.16008 34.5439C7.66941 35.0773 8.41341 35.3333 9.39474 35.3333ZM26.4881 37.6319C26.1041 37.6319 25.8481 37.5679 25.6774 37.4186C25.5067 37.2906 25.3574 36.9919 25.2294 36.5893L20.2294 20.1333C20.1321 19.8573 20.0677 19.5709 20.0374 19.2799C20.0374 18.9386 20.2081 18.7466 20.5467 18.7466H22.6347C23.0374 18.7466 23.3147 18.8133 23.4614 18.9599C23.6347 19.0879 23.7627 19.3866 23.8881 19.7919L27.4667 33.8826L30.7867 19.7919C30.8934 19.3653 31.0214 19.0879 31.1894 18.9599C31.4453 18.803 31.7432 18.7286 32.0427 18.7466H33.7441C34.1494 18.7466 34.4267 18.8133 34.5974 18.9599C34.7654 19.0879 34.9174 19.3866 35.0001 19.7919L38.3627 34.0533L42.0454 19.7919C42.1734 19.3653 42.3227 19.0879 42.4721 18.9599C42.7191 18.8031 43.0094 18.7284 43.3014 18.7466H45.2827C45.6214 18.7466 45.8161 18.9199 45.8161 19.2799C45.8161 19.3866 45.7921 19.4933 45.7707 19.6213C45.7373 19.8032 45.6874 19.9818 45.6214 20.1546L40.4934 36.6079C40.3654 37.0346 40.2161 37.3093 40.0454 37.4373C39.8051 37.5914 39.5225 37.6661 39.2374 37.6506H37.4054C37.0027 37.6506 36.7254 37.5866 36.5521 37.4373C36.3841 37.2879 36.2347 37.0106 36.1521 36.5839L32.8507 22.8559L29.5707 36.5626C29.4641 36.9893 29.3387 37.2666 29.1707 37.4159C28.9974 37.5653 28.6987 37.6293 28.3174 37.6293L26.4881 37.6319ZM53.8374 38.2053C52.7307 38.2053 51.6241 38.0773 50.5601 37.8239C49.4961 37.5679 48.6667 37.2906 48.1121 36.9706C47.7707 36.7813 47.5387 36.5679 47.4534 36.3759C47.3703 36.1877 47.3267 35.9844 47.3254 35.7786V34.6933C47.3254 34.2479 47.4961 34.0346 47.8134 34.0346C47.9414 34.0346 48.0694 34.0559 48.1974 34.0986C48.3254 34.1413 48.5174 34.2266 48.7307 34.3119C49.4534 34.6319 50.2401 34.8853 51.0721 35.0559C51.9227 35.2266 52.7521 35.3119 53.6054 35.3119C54.9441 35.3119 55.9894 35.0773 56.7121 34.6079C57.0585 34.3986 57.3434 34.1014 57.5377 33.7464C57.7321 33.3913 57.8291 32.9912 57.8187 32.5866C57.8265 32.3126 57.7799 32.0397 57.6815 31.7838C57.5831 31.5279 57.4348 31.2941 57.2454 31.0959C56.8614 30.6933 56.1361 30.3306 55.0934 29.9893L52.0081 29.0293C50.4534 28.5413 49.3041 27.8186 48.6027 26.8613C47.9163 25.9778 47.5413 24.8921 47.5361 23.7733C47.5361 22.8799 47.7307 22.0933 48.1121 21.4106C48.4961 20.7306 49.0054 20.1333 49.6454 19.6666C50.2854 19.1759 51.0054 18.8133 51.8587 18.5599C52.7121 18.3039 53.6054 18.1973 54.5414 18.1973C55.0081 18.1973 55.4987 18.2186 55.9681 18.2826C56.4561 18.3466 56.9014 18.4319 57.3494 18.5173C57.7761 18.6239 58.1814 18.7306 58.5627 18.8559C58.9467 18.9839 59.2454 19.1119 59.4587 19.2399C59.71 19.3664 59.929 19.5489 60.0987 19.7733C60.2362 19.9803 60.3026 20.2265 60.2881 20.4746V21.4746C60.2881 21.9226 60.1174 22.1573 59.7974 22.1573C59.5141 22.1248 59.2397 22.0379 58.9894 21.9013C57.7035 21.3332 56.3097 21.0503 54.9041 21.0719C53.6907 21.0719 52.7307 21.2613 52.0721 21.6666C51.4107 22.0719 51.0721 22.6879 51.0721 23.5599C51.0721 24.1573 51.2854 24.6693 51.7121 25.0719C52.1361 25.4773 52.9227 25.8826 54.0507 26.2453L57.0747 27.1999C58.6054 27.6906 59.7147 28.3733 60.3734 29.2453C61.0321 30.1173 61.3521 31.1173 61.3521 32.2239C61.3521 33.1386 61.1601 33.9706 60.8001 34.6933C60.4216 35.422 59.8915 36.0612 59.2454 36.5679C58.5841 37.1013 57.7974 37.4826 56.8827 37.7599C55.9227 38.0559 54.9254 38.2053 53.8374 38.2053ZM57.8614 48.5519C50.8587 53.7253 40.6827 56.4693 31.9361 56.4693C19.6747 56.4693 8.62941 51.9359 0.282743 44.3999C-0.375924 43.8053 0.218743 42.9946 1.00808 43.4639C10.0321 48.6986 21.1654 51.8719 32.6801 51.8719C40.4507 51.8719 48.9841 50.2533 56.8401 46.9333C58.0107 46.3999 59.0107 47.6986 57.8614 48.5519ZM60.7787 45.2293C59.8827 44.0826 54.8587 44.6773 52.5814 44.9546C51.9014 45.0399 51.7947 44.4426 52.4134 43.9946C56.4134 41.1866 62.9921 41.9946 63.7574 42.9306C64.5227 43.8906 63.5441 50.4666 59.7974 53.6159C59.2241 54.1066 58.6694 53.8506 58.9254 53.2133C59.7787 51.1066 61.6721 46.3599 60.7787 45.2293Z" fill="white"></path> </g> <defs> <clipPath id="clip0"> <rect width="64" height="64" fill="white"></rect> </clipPath> </defs> </svg> 