<?xml version="1.0" encoding="UTF-8"?> <svg xmlns="http://www.w3.org/2000/svg" width="64" height="64" viewBox="0 0 64 64" fill="none"> <path d="M32 37.4999C29.8823 37.5017 27.7972 36.9787 25.931 35.9777C24.0649 34.9766 22.4759 33.5287 21.3062 31.7634L24.3605 29.7339C25.1966 30.9947 26.3318 32.029 27.6648 32.7445C28.9978 33.46 30.4871 33.8344 32 33.8344C33.5129 33.8344 35.0022 33.46 36.3352 32.7445C37.6682 32.029 38.8034 30.9947 39.6395 29.7339L42.6938 31.7634C41.5241 33.5287 39.9351 34.9766 38.069 35.9777C36.2028 36.9787 34.1177 37.5017 32 37.4999Z" fill="white"></path> <path d="M39.3334 17.3334C38.6082 17.3334 37.8993 17.5485 37.2963 17.9514C36.6933 18.3543 36.2234 18.9269 35.9459 19.5969C35.6683 20.2669 35.5957 21.0042 35.7372 21.7154C35.8787 22.4267 36.2279 23.08 36.7407 23.5928C37.2535 24.1056 37.9068 24.4548 38.6181 24.5963C39.3293 24.7378 40.0666 24.6652 40.7366 24.3877C41.4066 24.1101 41.9792 23.6402 42.3821 23.0372C42.785 22.4342 43.0001 21.7253 43.0001 21.0001C43.005 20.5172 42.9135 20.0382 42.731 19.5912C42.5484 19.1441 42.2785 18.7379 41.9371 18.3965C41.5956 18.055 41.1894 17.7851 40.7424 17.6026C40.2953 17.42 39.8163 17.3285 39.3334 17.3334Z" fill="white"></path> <path d="M24.6667 17.3334C23.9415 17.3334 23.2326 17.5485 22.6296 17.9514C22.0266 18.3543 21.5566 18.9269 21.2791 19.5969C21.0016 20.2669 20.929 21.0042 21.0705 21.7154C21.2119 22.4267 21.5612 23.08 22.0739 23.5928C22.5867 24.1056 23.2401 24.4548 23.9513 24.5963C24.6626 24.7378 25.3998 24.6652 26.0698 24.3877C26.7398 24.1101 27.3125 23.6402 27.7154 23.0372C28.1183 22.4342 28.3333 21.7253 28.3333 21.0001C28.3382 20.5172 28.2467 20.0382 28.0642 19.5912C27.8817 19.1441 27.6118 18.7379 27.2703 18.3965C26.9289 18.055 26.5227 17.7851 26.0756 17.6026C25.6285 17.42 25.1495 17.3285 24.6667 17.3334Z" fill="white"></path> <path d="M35.1826 57.6666L31.9999 55.8333L39.3333 42.9999H50.3333C50.815 43.0006 51.2921 42.9063 51.7373 42.7223C52.1825 42.5383 52.587 42.2682 52.9276 41.9276C53.2682 41.587 53.5383 41.1825 53.7223 40.7373C53.9063 40.2921 54.0006 39.815 53.9999 39.3333V13.6666C54.0006 13.1849 53.9063 12.7077 53.7223 12.2626C53.5383 11.8174 53.2682 11.4129 52.9276 11.0722C52.587 10.7316 52.1825 10.4616 51.7373 10.2776C51.2921 10.0935 50.815 9.99919 50.3333 9.99992H13.6666C13.1849 9.99919 12.7077 10.0935 12.2626 10.2776C11.8174 10.4616 11.4129 10.7316 11.0722 11.0722C10.7316 11.4129 10.4616 11.8174 10.2776 12.2626C10.0935 12.7077 9.99919 13.1849 9.99992 13.6666V39.3333C9.99919 39.815 10.0935 40.2921 10.2776 40.7373C10.4616 41.1825 10.7316 41.587 11.0722 41.9276C11.4129 42.2682 11.8174 42.5383 12.2626 42.7223C12.7077 42.9063 13.1849 43.0006 13.6666 42.9999H30.1666V46.6666H13.6666C11.7217 46.6666 9.8564 45.894 8.48114 44.5187C7.10587 43.1434 6.33325 41.2782 6.33325 39.3333V13.6666C6.33301 12.7035 6.52253 11.7498 6.89098 10.86C7.25943 9.97013 7.79959 9.16161 8.4806 8.4806C9.16161 7.79959 9.97013 7.25943 10.86 6.89098C11.7498 6.52253 12.7035 6.33301 13.6666 6.33325H50.3333C51.2963 6.33301 52.2501 6.52253 53.1399 6.89098C54.0297 7.25943 54.8382 7.79959 55.5192 8.4806C56.2003 9.16161 56.7404 9.97013 57.1089 10.86C57.4773 11.7498 57.6668 12.7035 57.6666 13.6666V39.3333C57.6666 41.2782 56.894 43.1434 55.5187 44.5187C54.1434 45.894 52.2782 46.6666 50.3333 46.6666H41.4691L35.1826 57.6666Z" fill="white"></path> </svg> 