<?xml version="1.0" encoding="UTF-8"?> <svg xmlns="http://www.w3.org/2000/svg" width="64" height="64" viewBox="0 0 64 64" fill="none"> <g clip-path="url(#clip0)"> <path fill-rule="evenodd" clip-rule="evenodd" d="M63.9999 29.9479H52.4874L52.3 28.5874C50.697 16.9641 40.7108 8 28.6479 8C17.3706 8 7.72247 15.8703 5.33325 26.7253L11.2542 26.7807C13.0447 18.5462 19.9771 13.5952 28.6479 13.5952C37.4225 13.5952 44.7611 19.7909 46.526 28.0423L46.9337 29.9479H35.1408L34.7125 29.0512C33.6543 26.8354 31.3928 25.3025 28.7756 25.3025C25.147 25.3025 22.2011 28.2483 22.2011 31.877C22.2011 35.5056 25.147 38.4515 28.7756 38.4515C31.2886 38.4515 33.4738 37.0379 34.5808 34.9638L35.0257 34.1302H46.9012L46.4463 36.0662C44.5497 44.1402 37.2962 50.1587 28.6479 50.1587C20.5235 50.1587 13.5035 44.8236 11.1779 37.2688L10.0948 37.2316C9.12676 37.2021 8.15839 37.1736 7.19036 37.1461L5.34785 37.0963C7.76328 47.9171 17.3945 55.7539 28.6479 55.7539C40.6053 55.7539 50.5221 46.9461 52.2558 35.4704L52.4585 34.1302H59.8166L63.9999 29.9479Z" fill="white"></path> </g> <defs> <clipPath id="clip0"> <rect width="64" height="64" fill="white"></rect> </clipPath> </defs> </svg> 