<?xml version="1.0" encoding="UTF-8"?> <svg xmlns="http://www.w3.org/2000/svg" width="64" height="64" viewBox="0 0 64 64" fill="none"> <path fill-rule="evenodd" clip-rule="evenodd" d="M36.5941 19.1482L37.5495 15.3754C37.8247 14.2893 38.7509 13.498 39.8577 13.4037C40.9647 13.3098 42.0776 13.3098 43.1846 13.4037C44.2913 13.498 45.2175 14.2893 45.4925 15.3754L46.4513 19.1619C46.966 19.3439 47.4701 19.5546 47.9615 19.7933L51.2916 17.8003C52.247 17.2286 53.4564 17.3301 54.3048 18.0536C55.1536 18.7774 55.9404 19.5716 56.6574 20.4285C57.3741 21.2849 57.4747 22.5055 56.9083 23.4702L54.934 26.8319C55.1702 27.328 55.3791 27.8367 55.5594 28.3563L59.3104 29.3242C60.3864 29.6019 61.1702 30.5368 61.2636 31.654C61.3567 32.7715 61.3567 33.895 61.2636 35.0125C61.1702 36.1297 60.3864 37.0647 59.3104 37.3423L55.5594 38.3104C55.3791 38.8298 55.1705 39.3385 54.934 39.8346L56.9083 43.1963C57.4747 44.161 57.3741 45.3816 56.6574 46.238C55.9404 47.0949 55.1536 47.8891 54.3048 48.6129C53.4564 49.3364 52.247 49.4379 51.2916 48.8662L47.9615 46.8732C47.4701 47.1119 46.966 47.3226 46.4513 47.5048L45.4925 51.2911C45.2175 52.3772 44.2913 53.1685 43.1846 53.2628C42.0776 53.3567 40.9647 53.3567 39.8577 53.2628C38.7509 53.1685 37.8247 52.3772 37.5495 51.2911L36.5925 47.5119C35.535 47.1454 34.5206 46.6596 33.5936 46.0438C32.9994 45.649 32.4694 45.2455 31.9999 44.8483C31.5304 45.2455 31.0007 45.649 30.4066 46.0438C29.4796 46.6596 28.4652 47.1454 27.4076 47.5119L26.4504 51.2911C26.1754 52.3772 25.2493 53.1685 24.1425 53.2628C23.0355 53.3567 21.9226 53.3567 20.8156 53.2628C19.7088 53.1685 18.7827 52.3772 18.5076 51.2911L17.5486 47.5046C17.0341 47.3226 16.5301 47.1119 16.0387 46.8732L12.7085 48.8662C11.7529 49.4379 10.5437 49.3364 9.6954 48.6129C8.84655 47.8891 8.05976 47.0949 7.3428 46.238C6.6261 45.3816 6.52551 44.161 7.09186 43.1963L9.06619 39.8346C8.8297 39.3385 8.62103 38.8298 8.44045 38.3102L4.68976 37.3423C3.61378 37.0647 2.82994 36.1297 2.73657 35.0125C2.64347 33.895 2.64347 32.7715 2.73657 31.654C2.82994 30.5368 3.61378 29.6019 4.68976 29.3242L8.44072 28.3561C8.62103 27.8368 8.8297 27.328 9.06619 26.8319L7.09186 23.4702C6.52551 22.5055 6.6261 21.2849 7.3428 20.4285C8.05976 19.5716 8.84655 18.7774 9.6954 18.0536C10.5437 17.3301 11.7529 17.2286 12.7085 17.8003L16.0387 19.7933C16.5301 19.5546 17.0341 19.3439 17.5488 19.1617L18.5076 15.3754C18.7827 14.2893 19.7088 13.498 20.8156 13.4037C21.9226 13.3098 23.0355 13.3098 24.1425 13.4037C25.2493 13.498 26.1754 14.2893 26.4504 15.3754L27.406 19.1482C28.5189 19.5351 29.7308 20.1279 31.2437 21.1944C31.4812 21.3618 31.7057 21.5303 31.9173 21.6983C33.3948 20.456 34.9178 19.7471 36.0503 19.3515C36.2346 19.2778 36.4157 19.2103 36.5941 19.1482ZM42.4898 16.6026C41.8446 16.5645 41.1977 16.5645 40.5524 16.6026L39.6608 20.1231C39.6712 20.1687 39.6795 20.2152 39.6859 20.2621C39.7557 20.7771 39.5773 21.2689 39.2429 21.6141C39.1835 21.6999 39.1027 21.7693 39.0083 21.8144C38.8074 21.9551 38.5722 22.0513 38.3186 22.0864C38.3186 22.0864 37.8156 22.1634 37.0623 22.4383C36.3357 22.7461 35.5401 23.185 34.5947 23.8512C33.8884 24.3492 33.3314 24.8556 32.8999 25.3158C31.5203 26.9264 30.3804 29.3132 30.1687 32.8228V33.9206L30.1669 33.9698C29.8456 37.9696 26.524 41.1196 22.479 41.1196C18.2219 41.1196 14.7658 37.6307 14.7658 33.3333C14.7658 29.0358 18.2219 25.5469 22.479 25.5469C24.5751 25.5469 26.4769 26.3925 27.8678 27.7644C28.3541 26.3152 28.9967 25.1005 29.7209 24.0816C29.6193 24.0046 29.5141 23.9279 29.4055 23.8512C27.6214 22.5936 26.3707 22.1517 25.1139 21.8577C24.895 21.8063 24.7225 21.6362 24.6668 21.4161L23.4477 16.6026C22.8025 16.5645 22.1556 16.5645 21.5103 16.6026L20.2912 21.4161C20.2356 21.6362 20.0633 21.8063 19.8442 21.8577C18.5914 22.1507 17.395 22.6508 16.3038 23.3378C16.113 23.458 15.8717 23.4607 15.6783 23.3451L11.4447 20.8114C10.9619 21.2449 10.5041 21.7067 10.0748 22.1944L12.5847 26.4681C12.6992 26.6633 12.6965 26.9069 12.5774 27.0995C11.8969 28.2011 11.4014 29.4088 11.1111 30.6734C11.0603 30.8944 10.8918 31.0685 10.6737 31.1247L5.90539 32.3554C5.86767 33.0068 5.86767 33.6598 5.90539 34.3111L10.6737 35.5418C10.8918 35.598 11.0603 35.7719 11.1111 35.9931C11.4014 37.2577 11.8969 38.4654 12.5774 39.567C12.6965 39.7596 12.6992 40.0032 12.5847 40.1984L10.0748 44.4721C10.5041 44.9595 10.9616 45.4216 11.4447 45.8551L15.6783 43.3214C15.8717 43.2058 16.113 43.2085 16.3038 43.3287C17.395 44.0157 18.5914 44.5158 19.8442 44.8089C20.0633 44.8602 20.2356 45.0303 20.2912 45.2504L21.5103 50.0639C22.1556 50.102 22.8025 50.102 23.4477 50.0639L24.6668 45.2504C24.7225 45.0303 24.895 44.8602 25.1139 44.8089L25.1612 44.7975C25.3779 44.6136 25.6446 44.4856 25.94 44.4391C25.94 44.4391 28.55 43.9879 30.7589 41.4196C32.2431 39.6939 33.5107 37.049 33.8314 33.0524V32.7459C33.8314 32.7294 33.832 32.7132 33.8333 32.6967C33.8453 32.5471 33.8616 32.3988 33.882 32.2519L33.883 32.2309C33.8895 32.0918 33.913 31.9576 33.9518 31.8304C34.646 28.2516 37.7731 25.5469 41.5211 25.5469C45.7782 25.5469 49.2344 29.0358 49.2344 33.3333C49.2344 37.6307 45.7782 41.1196 41.5211 41.1196C39.3242 41.1196 37.3405 40.1906 35.935 38.7004C35.4237 40.1509 34.7819 41.3643 34.0805 42.3802C34.4574 42.6978 34.8825 43.0205 35.3582 43.3365C36.4213 44.0427 37.638 44.5169 38.8863 44.8089C39.1051 44.8602 39.2777 45.0303 39.3333 45.2504L40.5524 50.0639C41.1977 50.102 41.8446 50.102 42.4898 50.0639L43.7087 45.2504C43.7646 45.0303 43.9369 44.8602 44.156 44.8089C45.4088 44.5158 46.6051 44.0157 47.6964 43.3287C47.8871 43.2085 48.1282 43.2058 48.3218 43.3214L52.5554 45.8551C53.0383 45.4216 53.496 44.9598 53.9254 44.4721L51.4155 40.1984C51.301 40.0032 51.3037 39.7596 51.4227 39.567C52.103 38.4654 52.5988 37.2577 52.889 35.9931C52.9398 35.7719 53.1084 35.598 53.3264 35.5418L58.0945 34.3111C58.1325 33.6598 58.1325 33.0068 58.0945 32.3554L53.3264 31.1247C53.1084 31.0685 52.9398 30.8944 52.889 30.6734C52.5988 29.4088 52.103 28.2011 51.4227 27.0995C51.3037 26.9069 51.301 26.6633 51.4155 26.4681L53.9254 22.1944C53.496 21.707 53.0386 21.2449 52.5554 20.8114L48.3218 23.3451C48.1282 23.4607 47.8871 23.458 47.6964 23.3378C46.6051 22.6508 45.4088 22.1507 44.156 21.8577C43.9369 21.8063 43.7646 21.6362 43.7087 21.4161L42.4898 16.6026ZM26.9534 32.8291C26.707 30.5565 24.7955 28.7876 22.479 28.7876C19.9937 28.7876 17.9761 30.8244 17.9761 33.3333C17.9761 35.8421 19.9937 37.8789 22.479 37.8789C24.8121 37.8789 26.7343 36.0846 26.9585 33.7883V33.0448C26.9518 32.9741 26.9499 32.902 26.9534 32.8291ZM37.0417 33.7883C37.2659 36.0846 39.188 37.8789 41.5211 37.8789C44.0064 37.8789 46.0241 35.8421 46.0241 33.3333C46.0241 30.8244 44.0064 28.7876 41.5211 28.7876C39.2876 28.7876 37.4304 30.432 37.0797 32.5871C37.069 32.7875 37.0564 32.9851 37.0417 33.1801V33.7883Z" fill="white"></path> </svg> 