<?xml version="1.0" encoding="UTF-8"?> <svg xmlns="http://www.w3.org/2000/svg" width="64" height="64" viewBox="0 0 64 64" fill="none"> <path fill-rule="evenodd" clip-rule="evenodd" d="M59.5002 26.5H55.8335C55.8277 21.6395 53.8943 16.9797 50.4574 13.5428C47.0204 10.1059 42.3607 8.17249 37.5002 8.16667V4.5C43.333 4.50631 48.9251 6.82619 53.0495 10.9506C57.174 15.0751 59.4939 20.6672 59.5002 26.5ZM50.3335 37.5H57.6668V41.1667H50.3335V46.6667C50.332 47.6387 49.9453 48.5705 49.2579 49.2578C48.5706 49.9451 47.6388 50.3319 46.6668 50.3333H41.1668V57.6667H37.5002V50.3333H26.5002V57.6667H22.8335V50.3333H17.3335C16.3613 50.3324 15.4293 49.9457 14.7418 49.2583C14.0544 48.5709 13.6678 47.6388 13.6668 46.6667V41.1667H6.3335V37.5H13.6668V26.5H6.3335V22.8333H13.6668V17.3333C13.6678 16.3612 14.0544 15.4291 14.7418 14.7417C15.4293 14.0543 16.3613 13.6676 17.3335 13.6667H22.8335V6.33333H26.5002V13.6667H33.8335V17.3333H17.3335V46.6667H46.6668V30.1667H50.3335V37.5ZM22.8335 41.1667H41.1668V22.8333H22.8335V41.1667ZM37.5002 37.5H26.5002V26.5H37.5002V37.5ZM46.6668 26.5H50.3335C50.3296 23.0976 48.9763 19.8356 46.5704 17.4298C44.1645 15.0239 40.9026 13.6705 37.5002 13.6667V17.3333C39.9304 17.3362 42.2603 18.3029 43.9788 20.0214C45.6972 21.7399 46.6639 24.0697 46.6668 26.5Z" fill="white"></path> </svg> 