<?xml version="1.0" encoding="UTF-8"?> <svg xmlns="http://www.w3.org/2000/svg" width="64" height="64" viewBox="0 0 64 64" fill="none"> <path d="M34.9211 2.66675C38.1678 10.1341 23.2796 14.7084 21.8947 20.9323C20.628 26.644 30.7156 33.3441 30.7248 33.3441C29.1848 30.9813 28.064 28.9887 26.5263 25.3035C23.9211 19.0796 42.4011 13.465 34.9211 2.66675ZM44.7632 13.0339C44.7632 13.0339 31.7461 13.8351 31.0861 22.1306C30.7851 25.8248 34.5227 27.7633 34.6316 30.4532C34.7242 32.6467 32.3876 34.4701 32.3876 34.4701C32.3876 34.4701 36.5768 33.7322 37.8876 30.381C39.335 26.662 35.0669 24.1233 35.5 21.1422C35.9168 18.2965 44.7632 13.0339 44.7632 13.0339V13.0339ZM47.9474 32.1435C46.5811 32.0826 45.0434 32.5768 43.6771 33.5539C46.3726 32.974 48.6722 34.6213 48.6722 36.5169C48.6722 40.7663 42.4474 44.7674 42.4474 44.7674C42.4474 44.7674 52.0718 43.718 52.0718 36.7291C52.0718 33.845 50.2192 32.2496 47.9474 32.1435V32.1435ZM22.4019 32.2157C19.044 32.3285 12.3421 32.8679 12.3421 35.3886C12.3421 38.8977 27.9552 39.1708 39.1196 37.0112C39.1196 37.0112 42.1579 34.9486 42.9545 34.1903C35.6366 35.6707 18.9282 35.9009 18.9282 34.6123C18.9282 33.4321 24.2823 32.2157 24.2823 32.2157C24.2823 32.2157 23.5227 32.1796 22.4019 32.2157V32.2157ZM21.3876 38.7037C19.5512 38.7037 16.8278 40.096 16.8278 41.4523C16.8278 44.1851 30.6531 46.2839 40.8564 42.2986L37.3086 40.1841C30.3891 42.3888 17.6059 41.6554 21.3876 38.7037ZM23.1244 44.8373C20.6187 44.8373 19 46.3809 19 47.5183C19 51.0161 33.9716 51.3614 39.9139 47.8003L36.1507 45.4015C31.7183 47.2633 20.5655 47.5363 23.1244 44.8373ZM14.7297 48.0125C10.6423 47.9335 8 49.7388 8 51.2531C8 59.3184 49.9019 58.9326 49.9019 50.6889C49.9019 49.3236 48.2461 48.6714 47.6579 48.3623C51.0783 56.2426 13.4282 55.6265 13.4282 50.971C13.4282 49.9149 16.2141 48.8565 18.7823 49.3507L16.6124 48.1501C15.9889 48.0617 15.3598 48.0149 14.7297 48.0102V48.0125ZM54.3158 53.442C47.9474 59.4448 31.8295 61.5954 15.5981 57.8855C31.8272 64.4975 54.2347 60.8191 54.3158 53.442Z" fill="white"></path> </svg> 